<svg xmlns="http://www.w3.org/2000/svg" width="285" height="285" viewBox="0 0 285 285" fill="none">
<path d="M138.664 247.503C125.407 252.423 113.763 251.329 100.506 246.752C74.2028 237.665 53.8615 216.621 46.0757 191.82C39.4121 170.504 38.9913 145.224 51.7572 125.684C65.435 104.777 92.7905 94.1188 118.252 102.249C127.301 105.187 130.878 108.33 138.664 113.522C146.029 108.33 152.341 105.187 160.829 102.249C184.677 94.1188 210.419 104.777 223.255 125.684C235.25 145.224 234.899 170.504 228.586 191.82C221.291 216.621 202.143 237.596 177.452 246.752C165.037 251.329 151.149 252.491 138.664 247.503Z" fill="#90C715"/>
<path d="M151.749 234.641C138.492 239.56 126.848 238.467 113.591 233.89C87.2876 224.803 66.9463 203.759 59.1605 178.958C52.497 157.642 52.0761 132.362 64.8421 112.822C78.5198 91.9151 105.875 81.2568 131.337 89.3872C140.385 92.3251 143.963 95.4679 151.749 100.66C159.113 95.4679 165.426 92.3251 173.914 89.3872C197.762 81.2568 223.504 91.9151 236.34 112.822C248.335 132.362 247.984 157.642 241.671 178.958C234.376 203.759 215.227 224.734 190.537 233.89C178.122 238.467 164.234 239.629 151.749 234.641Z" fill="#F4FFE1" stroke="#00794D" stroke-width="8.16" stroke-miterlimit="10"/>
<path d="M102.351 109.365C102.351 109.365 62.9066 124.796 82.5258 167.369" stroke="#00794D" stroke-width="8.16" stroke-miterlimit="10" stroke-linecap="round"/>
<path d="M151.698 48.3467C151.698 48.3467 119.538 19.1093 68.2797 52.8969C65.2108 54.9199 65.3988 59.3103 68.6962 60.9345C83.3585 68.1569 119.236 81.8458 147.812 60.4156" fill="#90C715"/>
<path d="M151.698 48.3467C151.698 48.3467 119.396 18.9804 67.941 53.121C64.9711 55.0915 65.0471 59.3314 68.1492 61.0864C82.4661 69.186 118.964 85.7526 147.909 64.0451" stroke="#00794D" stroke-width="8.16" stroke-miterlimit="10" stroke-linecap="round"/>
<path d="M165.326 36.6024C165.326 36.6024 137.143 64.6569 151.531 95.2619" stroke="#00794D" stroke-width="8.16" stroke-miterlimit="10" stroke-linecap="round"/>
</svg>