<svg xmlns="http://www.w3.org/2000/svg" width="285" height="285" viewBox="0 0 285 285" fill="none">
<path d="M182.433 115.846H177.204C177.204 86.5068 153.457 62.7272 124.169 62.7272C94.8812 62.7272 71.1341 86.5121 71.1341 115.846H65.9051C62.6409 115.846 60 118.497 60 121.761V129.993C60 133.262 62.6462 135.907 65.9051 135.907H71.1341L87.83 251.927C88.58 257.133 93.0326 261 98.288 261H151.973C157.323 261 161.828 256.995 162.462 251.673L176.258 135.907H182.443C185.708 135.907 188.349 133.257 188.349 129.993V121.761C188.349 118.492 185.702 115.846 182.443 115.846H182.433Z" fill="#DA1F46"/>
<path d="M82.1332 107.718C82.1332 78.3785 105.88 54.5989 135.168 54.5989C164.456 54.5989 188.203 78.3838 188.203 107.718" fill="#FFEBEA"/>
<path d="M82.1332 107.718C82.1332 78.3785 105.88 54.5989 135.168 54.5989C164.456 54.5989 188.203 78.3838 188.203 107.718" stroke="#3F2120" stroke-width="6" stroke-miterlimit="10" stroke-linecap="round"/>
<path d="M225.921 24H180.545C176.404 24 172.643 26.4229 170.926 30.2002L136.24 107.718" stroke="#3F2120" stroke-width="6" stroke-miterlimit="10" stroke-linecap="round"/>
<path d="M122.962 69.7288C122.962 69.7288 105.49 73.9292 97.8044 96.09" stroke="#3F2120" stroke-width="6" stroke-miterlimit="10" stroke-linecap="round"/>
<path d="M82.1332 127.784L98.8291 243.804C99.5791 249.01 104.032 252.877 109.287 252.877H162.972C168.322 252.877 172.828 248.872 173.461 243.55L187.258 127.784" fill="#FFEBEA"/>
<path d="M82.1332 127.784L98.8291 243.804C99.5791 249.01 104.032 252.877 109.287 252.877H162.972C168.322 252.877 172.828 248.872 173.461 243.55L187.258 127.784" stroke="#3F2120" stroke-width="6" stroke-miterlimit="10" stroke-linecap="round"/>
<path d="M193.437 107.718H76.8987C73.6375 107.718 70.9937 110.366 70.9937 113.632V121.869C70.9937 125.136 73.6375 127.784 76.8987 127.784H193.437C196.698 127.784 199.342 125.136 199.342 121.869V113.632C199.342 110.366 196.698 107.718 193.437 107.718Z" fill="#FFEBEA" stroke="#3F2120" stroke-width="6" stroke-miterlimit="10" stroke-linecap="round"/>
<path d="M95.447 195.962L106.391 191.136C108.951 190.008 111.763 190.076 114.284 191.324L124.393 196.338C127.215 197.74 130.39 197.646 133.155 196.089L140.743 191.821C143.512 190.263 146.683 190.176 149.505 191.572L159.322 196.438C162.02 197.774 165.038 197.754 167.721 196.384L176.975 191.66" stroke="#3F2120" stroke-width="6" stroke-miterlimit="10" stroke-linecap="round"/>
<path d="M213.131 69.8168V74.8055" stroke="#DA1F46" stroke-width="6" stroke-miterlimit="10" stroke-linecap="round"/>
<path d="M213.131 88.9841V93.9728" stroke="#DA1F46" stroke-width="6" stroke-miterlimit="10" stroke-linecap="round"/>
<path d="M224.492 81.8949H219.511" stroke="#DA1F46" stroke-width="6" stroke-miterlimit="10" stroke-linecap="round"/>
<path d="M206.769 81.8949H201.788" stroke="#DA1F46" stroke-width="6" stroke-miterlimit="10" stroke-linecap="round"/>
<path d="M113.879 144.255V149.244" stroke="#DA1F46" stroke-width="6" stroke-miterlimit="10" stroke-linecap="round"/>
<path d="M113.879 163.423V168.411" stroke="#DA1F46" stroke-width="6" stroke-miterlimit="10" stroke-linecap="round"/>
<path d="M125.241 156.333H120.26" stroke="#DA1F46" stroke-width="6" stroke-miterlimit="10" stroke-linecap="round"/>
<path d="M107.517 156.333H102.536" stroke="#DA1F46" stroke-width="6" stroke-miterlimit="10" stroke-linecap="round"/>
<path d="M71.3429 27.2802V32.2689" stroke="#DA1F46" stroke-width="6" stroke-miterlimit="10" stroke-linecap="round"/>
<path d="M71.3429 46.4476V51.4363" stroke="#DA1F46" stroke-width="6" stroke-miterlimit="10" stroke-linecap="round"/>
<path d="M82.7043 39.3584H77.7235" stroke="#DA1F46" stroke-width="6" stroke-miterlimit="10" stroke-linecap="round"/>
<path d="M64.9808 39.3584H60" stroke="#DA1F46" stroke-width="6" stroke-miterlimit="10" stroke-linecap="round"/>
</svg>