<svg xmlns="http://www.w3.org/2000/svg" width="285" height="285" viewBox="0 0 285 285" fill="none">
<path d="M155.415 211.587C190.171 211.587 218.346 183.474 218.346 148.795C218.346 114.116 190.171 86.0035 155.415 86.0035C120.659 86.0035 92.484 114.116 92.484 148.795C92.484 183.474 120.659 211.587 155.415 211.587Z" fill="#DA1F46"/>
<path d="M259.502 44.0993C246.144 30.7705 191.17 64.0292 136.703 118.357C82.2367 172.685 48.9223 227.555 62.2807 240.884C75.639 254.213 130.613 220.954 185.08 166.626C239.546 112.298 272.861 57.41 259.502 44.0993ZM176.869 158.452C139.386 195.852 101.558 218.73 92.3687 209.561C83.1792 200.391 106.108 162.63 143.591 125.247C181.074 87.8473 218.901 64.9696 228.091 74.1388C237.281 83.308 214.352 121.07 176.869 158.452Z" fill="#DA1F46"/>
<path d="M265.45 133.927L273.806 136.929C274.005 137.001 274.005 137.272 273.806 137.345L265.45 140.347C263.021 141.215 261.1 143.132 260.23 145.555L257.221 153.893C257.149 154.092 256.877 154.092 256.804 153.893L253.795 145.555C252.925 143.132 251.004 141.215 248.575 140.347L240.22 137.345C240.02 137.272 240.02 137.001 240.22 136.929L248.575 133.927C251.004 133.059 252.925 131.142 253.795 128.718L256.804 120.381C256.877 120.182 257.149 120.182 257.221 120.381L260.23 128.718C261.1 131.142 263.021 133.059 265.45 133.927Z" fill="#DA1F46"/>
<path d="M42.233 153.073L52.0388 156.599C52.3288 156.708 52.3288 157.124 52.0388 157.232L42.233 160.759C39.3148 161.808 37.031 164.086 35.9798 166.998L32.4453 176.782C32.3366 177.072 31.9197 177.072 31.811 176.782L28.2765 166.998C27.2253 164.086 24.9415 161.808 22.0233 160.759L12.2175 157.232C11.9275 157.124 11.9275 156.708 12.2175 156.599L22.0233 153.073C24.9415 152.024 27.2253 149.745 28.2765 146.833L31.811 137.049C31.9197 136.76 32.3366 136.76 32.4453 137.049L35.9798 146.833C37.031 149.745 39.3148 152.024 42.233 153.073Z" fill="#DA1F46"/>
<path d="M146.943 203.115C181.699 203.115 209.874 175.002 209.874 140.323C209.874 105.644 181.699 77.5312 146.943 77.5312C112.187 77.5312 84.0122 105.644 84.0122 140.323C84.0122 175.002 112.187 203.115 146.943 203.115Z" fill="#FFEAEA" stroke="#3F2120" stroke-width="6" stroke-miterlimit="10"/>
<path d="M146.943 203.115C181.699 203.115 209.874 175.002 209.874 140.323C209.874 105.644 181.699 77.5312 146.943 77.5312C112.187 77.5312 84.0122 105.644 84.0122 140.323C84.0122 175.002 112.187 203.115 146.943 203.115Z" fill="#FFEAEA" stroke="#3F2120" stroke-width="6" stroke-miterlimit="10"/>
<path d="M242.88 41.9395C229.522 28.6107 174.548 61.8694 120.081 116.197C65.6145 170.525 32.3001 225.395 45.6585 238.724C59.0168 252.053 113.991 218.794 168.457 164.467C222.924 110.139 256.238 55.2502 242.88 41.9395ZM160.247 156.292C122.764 193.692 84.936 216.57 75.7465 207.401C66.557 198.232 89.4855 160.47 126.969 123.088C164.452 85.6875 202.279 62.8098 211.469 71.979C220.658 81.1482 197.73 118.91 160.247 156.292Z" fill="#FFEAEA" stroke="#3F2120" stroke-width="6" stroke-miterlimit="10"/>
<path d="M106.849 188.718C80.0603 166.618 76.3083 127.03 98.4575 100.3C120.607 73.57 160.283 69.8264 187.072 91.9265" fill="#FFEAEA"/>
<path d="M106.849 188.718C80.0603 166.618 76.3083 127.03 98.4575 100.3C120.607 73.57 160.283 69.8264 187.072 91.9265" stroke="#3F2120" stroke-width="6" stroke-miterlimit="10"/>
</svg>