<svg xmlns="http://www.w3.org/2000/svg" width="350" height="350" viewBox="0 0 350 350" fill="none">
<path fill-rule="evenodd" clip-rule="evenodd" d="M55.5856 99.2866H63.0002V106.855C63.0002 110.442 65.8525 113.353 69.367 113.353C72.8815 113.353 75.7338 110.442 75.7338 106.855V99.2866H83.1484C86.6629 99.2866 89.5152 96.3752 89.5152 92.7879C89.5152 89.2006 86.6629 86.2892 83.1484 86.2892H75.7338V78.721C75.7338 75.1337 72.8815 72.2223 69.367 72.2223C65.8525 72.2223 63.0002 75.1337 63.0002 78.721V86.2892H55.5856C52.0711 86.2892 49.2188 89.2006 49.2188 92.7879C49.2188 96.3752 52.0711 99.2866 55.5856 99.2866Z" fill="#90C715"/>
<path fill-rule="evenodd" clip-rule="evenodd" d="M263.398 59.5732H269.998V66.3169C269.998 69.8968 272.857 72.8156 276.365 72.8156C279.872 72.8156 282.731 69.8968 282.731 66.3169V59.5732H289.346C292.86 59.5732 295.712 56.6617 295.712 53.0745C295.712 49.4872 292.86 46.5757 289.346 46.5757H282.731V39.832C282.731 36.2447 279.879 33.3333 276.365 33.3333C272.85 33.3333 269.998 36.2447 269.998 39.832V46.5757H263.398C259.884 46.5757 257.031 49.4872 257.031 53.0745C257.031 56.6617 259.884 59.5732 263.398 59.5732Z" fill="#90C715"/>
<path fill-rule="evenodd" clip-rule="evenodd" d="M254.504 238.889C250.997 238.889 248.137 241.8 248.137 245.387V252.124H241.523C238.016 252.124 235.156 255.035 235.156 258.623C235.156 262.21 238.016 265.121 241.523 265.121H248.137V271.872C248.137 275.46 250.997 278.371 254.504 278.371C258.011 278.371 260.871 275.46 260.871 271.872V265.121H267.471C270.985 265.121 273.837 262.21 273.837 258.623C273.837 255.035 270.985 252.124 267.471 252.124H260.871V245.387C260.871 241.8 258.019 238.889 254.504 238.889Z" fill="#90C715"/>
<path fill-rule="evenodd" clip-rule="evenodd" d="M93.6634 197.733C94.7635 195.958 95.8693 194.189 96.9693 192.414C99.7535 187.937 102.538 183.459 105.322 178.982C109.013 173.053 112.699 167.117 116.391 161.188C120.082 155.259 124.023 148.921 127.839 142.784C131.004 137.697 134.168 132.609 137.332 127.528C139.736 123.661 142.157 119.806 144.539 115.92C149.387 108.008 154.32 100.163 159.225 92.2945C163.348 85.6882 167.47 79.0757 171.587 72.4694C171.74 72.2254 171.893 71.9753 172.046 71.7313C176.174 65.0945 183.098 61.1112 190.521 61.1112H218.266C219.707 61.1112 221.039 61.9286 221.782 63.2523C222.525 64.5821 222.565 66.2291 221.884 67.5955C213.021 85.4869 197.96 115.902 189.103 133.793C186.79 138.465 186.92 144.108 189.455 148.653C191.989 153.191 196.554 155.973 201.476 155.973H274.807C276.48 155.973 277.982 157.064 278.606 158.73C279.235 160.395 278.855 162.304 277.653 163.555L121.69 317.008C120.859 317.826 119.538 316.802 120.124 315.793L171.842 226.727C174.139 222.054 173.991 216.424 171.451 211.897C168.916 207.365 164.357 204.602 159.441 204.602H97.0714C95.5631 204.602 94.1681 203.705 93.4536 202.266C92.7392 200.826 92.8185 199.087 93.6634 197.733Z" fill="#90C715"/>
<path fill-rule="evenodd" clip-rule="evenodd" d="M78.3092 178.259C79.494 176.476 80.6844 174.699 81.8692 172.916C84.8674 168.417 87.8655 163.919 90.8637 159.421C94.8386 153.464 98.8079 147.501 102.783 141.545C106.758 135.588 111.002 129.221 115.111 123.056C118.518 117.945 121.926 112.834 125.333 107.729C127.922 103.843 130.528 99.9709 133.094 96.0662C138.318 88.1158 143.628 80.2363 148.909 72.331C153.348 65.6944 157.787 59.0516 162.22 52.4148C162.384 52.1697 162.549 51.9184 162.714 51.6733C167.159 45.0057 174.429 41.1247 182.112 41.3264L210.831 42.0802C212.321 42.1193 213.679 42.9905 214.414 44.3629C215.148 45.7415 216.756 54.1783 216.016 55.5556C206.378 73.5915 190.102 98.6307 180.469 116.667C177.953 121.377 176.229 126.013 178.734 130.724C181.24 135.429 185.892 138.395 190.987 138.528L265.235 136.111C266.966 136.157 270.147 141.722 270.749 143.441C271.358 145.159 270.915 147.099 269.638 148.344L107.479 306.28L158.476 210.001C160.974 205.29 160.968 199.535 158.456 194.842C155.95 190.143 150.011 189.023 144.922 188.889L81.8692 188.889C80.308 188.848 78.6764 184.374 77.9743 182.884C77.2722 181.394 77.3995 179.62 78.3092 178.259Z" fill="#F4FFE1"/>
<path fill-rule="evenodd" clip-rule="evenodd" d="M85.2573 196.69H148.243C149.698 196.69 151.038 197.461 151.794 198.734C152.544 200.007 152.584 201.578 151.908 202.886L103.302 296.77C101.103 301.016 102.259 306.267 106.022 309.152C109.784 312.037 115.052 311.704 118.437 308.363C157.039 270.331 239.541 189.056 274.581 154.534C278.733 150.446 280.038 144.197 277.874 138.736C275.709 133.281 270.515 129.707 264.743 129.707H190.688C189.233 129.707 187.888 128.93 187.137 127.663C186.387 126.389 186.347 124.812 187.034 123.504C195.979 106.374 211.194 77.2485 220.139 60.1188C222.476 55.645 222.338 50.2427 219.784 45.8975C217.224 41.5464 212.615 38.889 207.644 38.889H179.624C168.79 38.889 158.665 44.4023 152.641 53.5834C149.663 58.1214 146.68 62.6535 143.702 67.1856C139.619 73.3939 135.536 79.6022 131.453 85.8164C126.334 93.6016 121.26 101.416 116.146 109.207C111.238 116.689 106.325 124.176 101.418 131.657C96.5099 139.139 91.9974 146.013 87.2903 153.191C83.4592 159.031 79.6282 164.866 75.7972 170.706C75.0298 171.88 74.2625 173.054 73.4894 174.222C70.5803 178.655 70.2997 184.355 72.7621 189.056C75.2245 193.758 80.0291 196.702 85.2573 196.702V196.69ZM81.8157 179.899C82.9267 178.199 84.0433 176.506 85.1543 174.806L93.5894 161.945C97.3173 156.269 101.04 150.586 104.768 144.909C108.495 139.232 112.475 133.164 116.329 127.289C119.525 122.418 122.72 117.547 125.915 112.682C128.344 108.979 130.789 105.288 133.194 101.568C138.09 93.9929 143.072 86.4822 148.025 78.9481C152.189 72.623 156.352 66.292 160.509 59.9669C160.664 59.7333 160.818 59.4938 160.973 59.2602C165.136 52.9059 172.134 49.098 179.624 49.098H207.644C209.099 49.098 210.444 49.8806 211.194 51.148C211.945 52.4212 211.985 53.9981 211.298 55.3063C202.347 72.4361 187.137 101.556 178.193 118.686C175.856 123.16 175.988 128.562 178.548 132.913C181.107 137.258 185.717 139.921 190.688 139.921H264.743C266.432 139.921 267.95 140.967 268.58 142.561C269.215 144.156 268.832 145.984 267.618 147.181C267.618 147.181 113.432 299.089 113.426 299.095L160.761 207.664C163.08 203.19 162.932 197.799 160.366 193.466C157.806 189.127 153.202 186.481 148.237 186.481H85.2516C83.7284 186.481 82.3197 185.622 81.5981 184.244C80.8766 182.866 80.9567 181.201 81.81 179.905L81.8157 179.899Z" fill="#00794D"/>
</svg>