<svg xmlns="http://www.w3.org/2000/svg" width="285" height="285" viewBox="0 0 285 285" fill="none">
<path d="M108.818 234.73C127.022 234.73 141.779 221.139 141.779 204.373C141.779 187.608 127.022 174.017 108.818 174.017C90.6147 174.017 75.8576 187.608 75.8576 204.373C75.8576 221.139 90.6147 234.73 108.818 234.73Z" fill="#A35994"/>
<path d="M142.364 273.21C160.568 273.21 175.325 259.619 175.325 242.854C175.325 226.088 160.568 212.497 142.364 212.497C124.16 212.497 109.403 226.088 109.403 242.854C109.403 259.619 124.16 273.21 142.364 273.21Z" fill="#A35994"/>
<path d="M169.881 143.582C188.085 143.582 202.842 129.991 202.842 113.226C202.842 96.4603 188.085 82.8692 169.881 82.8692C151.678 82.8692 136.921 96.4603 136.921 113.226C136.921 129.991 151.678 143.582 169.881 143.582Z" fill="#A35994"/>
<path d="M108.818 143.582C127.022 143.582 141.779 129.991 141.779 113.226C141.779 96.4603 127.022 82.8692 108.818 82.8692C90.6147 82.8692 75.8576 96.4603 75.8576 113.226C75.8576 129.991 90.6147 143.582 108.818 143.582Z" fill="#A35994"/>
<path d="M80.0179 190.303C98.2217 190.303 122.618 174.374 122.618 157.609C122.618 140.843 98.2217 129.589 80.0179 129.589C61.8141 129.589 47.057 143.18 47.057 159.946C47.057 176.711 61.8141 190.303 80.0179 190.303Z" fill="#A35994"/>
<path d="M197.09 192.052C215.293 192.052 230.051 178.461 230.051 161.695C230.051 144.93 215.293 131.339 197.09 131.339C178.886 131.339 164.129 144.93 164.129 161.695C164.129 178.461 178.886 192.052 197.09 192.052Z" fill="#A35994"/>
<path d="M171.631 240.211C189.835 240.211 204.592 226.619 204.592 209.854C204.592 193.088 189.835 179.497 171.631 179.497C153.428 179.497 138.67 193.088 138.67 209.854C138.67 226.619 153.428 240.211 171.631 240.211Z" fill="#A35994"/>
<path d="M141.937 163.367C160.141 163.367 180.921 155.8 180.921 139.035C180.921 122.269 160.141 102.653 141.937 102.653C123.733 102.653 108.976 116.244 108.976 133.01C108.976 149.775 123.733 163.367 141.937 163.367Z" fill="#A35994"/>
<path d="M139.488 206.084C157.692 206.084 172.449 192.492 172.449 175.727C172.449 158.961 157.692 145.37 139.488 145.37C121.285 145.37 106.528 158.961 106.528 175.727C106.528 192.492 121.285 206.084 139.488 206.084Z" fill="#A35994"/>
<path d="M118.768 229.094C136.972 229.094 151.729 215.503 151.729 198.738C151.729 181.972 136.972 168.381 118.768 168.381C100.564 168.381 85.807 181.972 85.807 198.738C85.807 215.503 100.564 229.094 118.768 229.094Z" fill="#FFEDFF" stroke="#4E0F78" stroke-width="6" stroke-miterlimit="10"/>
<path d="M121.957 178.215C121.957 178.215 138.088 178.759 142.441 193.179" stroke="#4E0F78" stroke-width="6" stroke-miterlimit="10" stroke-linecap="round"/>
<path d="M152.313 267.574C170.517 267.574 185.274 253.983 185.274 237.218C185.274 220.452 170.517 206.861 152.313 206.861C134.11 206.861 119.353 220.452 119.353 237.218C119.353 253.983 134.11 267.574 152.313 267.574Z" fill="#FFEDFF" stroke="#4E0F78" stroke-width="6" stroke-miterlimit="10"/>
<path d="M155.541 216.695C155.541 216.695 171.671 217.239 176.025 231.66" stroke="#4E0F78" stroke-width="6" stroke-miterlimit="10" stroke-linecap="round"/>
<path d="M179.832 137.947C198.035 137.947 212.792 124.355 212.792 107.59C212.792 90.8244 198.035 77.2333 179.832 77.2333C161.628 77.2333 146.871 90.8244 146.871 107.59C146.871 124.355 161.628 137.947 179.832 137.947Z" fill="#FFEDFF" stroke="#4E0F78" stroke-width="6" stroke-miterlimit="10"/>
<path d="M183.019 87.1058C183.019 87.1058 199.15 87.65 203.503 102.07" stroke="#4E0F78" stroke-width="6" stroke-miterlimit="10" stroke-linecap="round"/>
<path d="M118.768 137.947C136.972 137.947 151.729 124.355 151.729 107.59C151.729 90.8244 136.972 77.2333 118.768 77.2333C100.564 77.2333 85.807 90.8244 85.807 107.59C85.807 124.355 100.564 137.947 118.768 137.947Z" fill="#FFEDFF" stroke="#4E0F78" stroke-width="6" stroke-miterlimit="10"/>
<path d="M121.957 87.1058C121.957 87.1058 138.088 87.65 142.441 102.07" stroke="#4E0F78" stroke-width="6" stroke-miterlimit="10" stroke-linecap="round"/>
<path d="M89.9676 184.667C108.171 184.667 122.928 171.076 122.928 154.31C122.928 137.545 108.171 123.953 89.9676 123.953C71.7638 123.953 57.0067 137.545 57.0067 154.31C57.0067 171.076 71.7638 184.667 89.9676 184.667Z" fill="#FFEDFF" stroke="#4E0F78" stroke-width="6" stroke-miterlimit="10"/>
<path d="M93.1566 133.787C93.1566 133.787 109.287 134.332 113.641 148.752" stroke="#4E0F78" stroke-width="6" stroke-miterlimit="10" stroke-linecap="round"/>
<path d="M207.039 186.416C225.243 186.416 240 172.825 240 156.059C240 139.294 225.243 125.703 207.039 125.703C188.835 125.703 174.078 139.294 174.078 156.059C174.078 172.825 188.835 186.416 207.039 186.416Z" fill="#FFEDFF" stroke="#4E0F78" stroke-width="6" stroke-miterlimit="10"/>
<path d="M210.228 135.576C210.228 135.576 226.358 136.12 230.712 150.54" stroke="#4E0F78" stroke-width="6" stroke-miterlimit="10" stroke-linecap="round"/>
<path d="M181.581 234.575C199.785 234.575 214.542 220.984 214.542 204.218C214.542 187.453 199.785 173.861 181.581 173.861C163.377 173.861 148.62 187.453 148.62 204.218C148.62 220.984 163.377 234.575 181.581 234.575Z" fill="#FFEDFF" stroke="#4E0F78" stroke-width="6" stroke-miterlimit="10"/>
<path d="M184.768 183.695C184.768 183.695 200.899 184.239 205.252 198.66" stroke="#4E0F78" stroke-width="6" stroke-miterlimit="10" stroke-linecap="round"/>
<path d="M151.887 157.731C170.091 157.731 184.848 144.14 184.848 127.374C184.848 110.609 170.091 97.0176 151.887 97.0176C133.683 97.0176 118.926 110.609 118.926 127.374C118.926 144.14 133.683 157.731 151.887 157.731Z" fill="#FFEDFF" stroke="#4E0F78" stroke-width="6" stroke-miterlimit="10"/>
<path d="M155.111 106.852C155.111 106.852 171.242 107.396 175.595 121.816" stroke="#4E0F78" stroke-width="6" stroke-miterlimit="10" stroke-linecap="round"/>
<path d="M149.438 200.448C167.642 200.448 182.399 186.857 182.399 170.091C182.399 153.326 167.642 139.734 149.438 139.734C131.234 139.734 116.477 153.326 116.477 170.091C116.477 186.857 131.234 200.448 149.438 200.448Z" fill="#FFEDFF" stroke="#4E0F78" stroke-width="6" stroke-miterlimit="10"/>
<path d="M152.662 149.568C152.662 149.568 168.793 150.113 173.146 164.533" stroke="#4E0F78" stroke-width="6" stroke-miterlimit="10" stroke-linecap="round"/>
<path d="M131.585 59.0008C131.585 59.0008 141.972 24.7528 192.501 27.0595C195.45 27.1941 197.125 30.3028 195.524 32.7828C188.283 44.0029 168.706 68.9641 139.412 65.878" fill="#A35994"/>
<path d="M131.585 59.0008C131.585 59.0008 142.016 24.6055 192.827 27.0749C195.686 27.2138 197.381 30.1631 195.969 32.6526C189.343 44.334 170.548 71.6058 140.874 68.4796" stroke="#4E0F78" stroke-width="6" stroke-miterlimit="10" stroke-linecap="round"/>
<path d="M117.021 56.458C117.021 56.458 148.729 64.3728 151.477 92.0293" stroke="#4E0F78" stroke-width="6" stroke-miterlimit="10" stroke-linecap="round"/>
</svg>