<svg xmlns="http://www.w3.org/2000/svg" width="285" height="285" viewBox="0 0 285 285" fill="none">
<path d="M171.71 90.3844C170.664 89.5333 169.589 88.7114 168.493 87.9258C145.253 71.3632 109.602 69.6466 86.6671 85.911C71.8019 96.4508 62.2025 112.744 56.0187 129.816C52.8735 138.501 50.5537 147.484 48.7249 156.548C46.6257 166.942 44.7044 174.318 39.2607 183.556C31.7889 196.227 25.6194 216.106 34.0803 229.686C47.6504 251.472 83.6997 247.544 104.386 242.278C132.978 234.996 159.456 217.437 175.389 191.942C184.504 177.351 191.831 160.59 193.033 143.002" fill="#FFC846"/>
<path d="M188.352 79.6846C187.306 78.8335 186.232 78.0116 185.136 77.226C161.895 60.6634 126.244 58.9467 103.309 75.2111C88.4443 85.751 78.8448 102.044 72.6611 119.116C69.5159 127.801 67.1961 136.785 65.3673 145.848C63.2681 156.242 61.3468 163.618 55.9031 172.856C48.4313 185.527 42.2618 205.406 50.7226 218.987C64.2927 240.772 100.342 236.844 121.028 231.578C149.62 224.297 176.098 206.737 192.031 181.242C201.147 166.651 208.473 149.89 209.676 132.302" fill="#FFF5DD"/>
<path d="M188.352 79.6846C187.306 78.8335 186.232 78.0116 185.136 77.226C161.895 60.6634 126.244 58.9467 103.309 75.2111C88.4443 85.751 78.8448 102.044 72.6611 119.116C69.5159 127.801 67.1961 136.785 65.3673 145.848C63.2681 156.242 61.3468 163.618 55.9031 172.856C48.4313 185.527 42.2618 205.406 50.7226 218.987C64.2927 240.772 100.342 236.844 121.028 231.578C149.62 224.297 176.098 206.737 192.031 181.242C201.147 166.651 208.473 149.89 209.676 132.302" stroke="#E81B3C" stroke-width="6" stroke-miterlimit="10" stroke-linecap="round"/>
<path d="M191.483 147.95C188.303 161.639 179.856 181.635 157.59 198.132" stroke="#E81B3C" stroke-width="6" stroke-miterlimit="10" stroke-linecap="round"/>
<path d="M188.331 79.7064C188.331 79.7064 256.985 70.8541 257.889 155.486C257.889 155.486 174.512 133.359 188.331 79.7064Z" fill="#FFC846"/>
<path d="M185.613 39C185.613 39 196.664 65.3751 187.826 81.4431" stroke="#E81B3C" stroke-width="6" stroke-miterlimit="10" stroke-linecap="round"/>
<path d="M187.658 82.6764C188.006 80.8925 189.511 79.5623 191.327 79.4895C204.195 78.9742 254.266 81.38 257.711 149.599C257.859 152.533 255.104 154.701 252.315 153.778C234.291 147.808 179.22 125.851 187.658 82.6764Z" stroke="#E81B3C" stroke-width="6" stroke-miterlimit="10"/>
</svg>