<svg xmlns="http://www.w3.org/2000/svg" width="285" height="285" viewBox="0 0 285 285" fill="none">
<path d="M158.337 126.307C158.337 126.307 194.301 189.87 182.744 251.424C182.194 254.423 179.415 255.882 176.388 255.909C167.252 255.992 152.944 255.359 140.011 255.992C135.856 256.184 133.077 251.837 134.866 248.094C143.836 229.548 159.906 181.808 140.066 128.178" fill="#FFA359"/>
<path d="M107.786 105.165C107.786 105.165 50.6898 124.123 57.1562 184.109C57.2937 185.457 59.1098 185.843 59.7427 184.632C66.154 172.745 87.8369 137.249 122.838 127.343" fill="#FFA359"/>
<path d="M144.08 103.129C144.08 103.129 84.2048 41.1068 27.4386 98.1482C26.503 99.1112 27.1634 100.707 28.4842 100.542C42.0497 98.9737 99.0911 97.5978 120.664 118.62" fill="#FFA359"/>
<path d="M126.993 144.926C135.625 144.926 142.622 137.928 142.622 129.297C142.622 120.665 135.625 113.667 126.993 113.667C118.361 113.667 111.364 120.665 111.364 129.297C111.364 137.928 118.361 144.926 126.993 144.926Z" fill="#FFA359"/>
<path d="M166.948 118.998C166.948 118.998 202.912 182.561 191.355 244.115C190.805 247.114 188.026 248.572 184.999 248.6C175.863 248.682 161.555 248.049 148.622 248.682C144.467 248.875 141.688 244.527 143.477 240.785C152.447 222.239 168.517 174.498 148.677 120.869" fill="#FFEDD7"/>
<path d="M166.948 118.998C166.948 118.998 202.912 182.561 191.355 244.115C190.805 247.114 188.026 248.572 184.999 248.6C175.863 248.682 161.555 248.049 148.622 248.682C144.467 248.875 141.688 244.527 143.477 240.785C152.447 222.239 168.517 174.498 148.677 120.869" stroke="#DA4B00" stroke-width="6" stroke-miterlimit="10"/>
<path d="M177.074 129.344C185.706 129.344 192.704 122.346 192.704 113.715C192.704 105.083 185.706 98.0853 177.074 98.0853C168.442 98.0853 161.445 105.083 161.445 113.715C161.445 122.346 168.442 129.344 177.074 129.344Z" fill="#FFEDD7" stroke="#DA4B00" stroke-width="6" stroke-miterlimit="10"/>
<path d="M144.522 96.4891C144.522 96.4891 210.809 60.8279 245.452 125.574C246.14 126.867 244.819 128.298 243.526 127.61C230.098 120.401 186.32 99.3508 145.458 106.835" fill="#FFEDD7"/>
<path d="M144.522 96.4891C144.522 96.4891 210.809 60.8279 245.452 125.574C246.14 126.867 244.819 128.298 243.526 127.61C230.098 120.401 186.32 99.3508 145.458 106.835" stroke="#DA4B00" stroke-width="6" stroke-miterlimit="10"/>
<path d="M134.369 77.5582C134.369 77.5582 189.787 -1.99157 257.339 44.6761C258.44 45.4466 258.11 47.1251 256.762 47.2352C241.93 48.5284 185.274 60.1128 161.472 95.6089" fill="#FFEDD7"/>
<path d="M134.369 77.5582C134.369 77.5582 189.787 -1.99157 257.339 44.6761C258.44 45.4466 258.11 47.1251 256.762 47.2352C241.93 48.5284 185.274 60.1128 161.472 95.6089" stroke="#DA4B00" stroke-width="6" stroke-miterlimit="10"/>
<path d="M116.043 93.7928C116.043 93.7928 58.9463 112.752 65.4126 172.737C65.5502 174.086 67.3663 174.471 67.9992 173.26C74.4105 161.373 96.0934 125.877 131.094 115.971" fill="#FFEDD7"/>
<path d="M116.043 93.7928C116.043 93.7928 58.9463 112.752 65.4126 172.737C65.5502 174.086 67.3663 174.471 67.9992 173.26C74.4105 161.373 96.0934 125.877 131.094 115.971" stroke="#DA4B00" stroke-width="6" stroke-miterlimit="10"/>
<path d="M152.337 91.7567C152.337 91.7567 92.4613 29.7349 35.695 86.7762C34.7595 87.7393 35.4199 89.3352 36.7407 89.1701C50.3062 87.6017 107.348 86.2259 128.92 107.248" fill="#FFEDD7"/>
<path d="M152.337 91.7567C152.337 91.7567 92.4613 29.7349 35.695 86.7762C34.7595 87.7393 35.4199 89.3352 36.7407 89.1701C50.3062 87.6017 107.348 86.2259 128.92 107.248" stroke="#DA4B00" stroke-width="6" stroke-miterlimit="10"/>
<path d="M156.519 123.015C165.151 123.015 172.149 116.017 172.149 107.386C172.149 98.7537 165.151 91.7562 156.519 91.7562C147.887 91.7562 140.89 98.7537 140.89 107.386C140.89 116.017 147.887 123.015 156.519 123.015Z" fill="#FFEDD7" stroke="#DA4B00" stroke-width="6" stroke-miterlimit="10"/>
<path d="M135.25 133.554C143.881 133.554 150.879 126.557 150.879 117.925C150.879 109.293 143.881 102.295 135.25 102.295C126.618 102.295 119.62 109.293 119.62 117.925C119.62 126.557 126.618 133.554 135.25 133.554Z" fill="#FFEDD7" stroke="#DA4B00" stroke-width="6" stroke-miterlimit="10"/>
<path d="M157.758 163.712C157.758 163.712 163.894 165.005 170.415 161.896Z" fill="#FFEDD7"/>
<path d="M157.758 163.712C157.758 163.712 163.894 165.005 170.415 161.896" stroke="#DA4B00" stroke-width="6" stroke-miterlimit="10" stroke-linecap="round"/>
<path d="M155.694 206.252C155.694 206.252 163.811 209.471 174.433 206.252Z" fill="#FFEDD7"/>
<path d="M155.694 206.252C155.694 206.252 163.811 209.471 174.433 206.252" stroke="#DA4B00" stroke-width="6" stroke-miterlimit="10" stroke-linecap="round"/>
<path d="M170.415 184.514C170.415 184.514 177.459 187.678 188.135 183.771Z" fill="#FFEDD7"/>
<path d="M170.415 184.514C170.415 184.514 177.459 187.678 188.135 183.771" stroke="#DA4B00" stroke-width="6" stroke-miterlimit="10" stroke-linecap="round"/>
<path d="M167.526 228.21C167.526 228.21 177.267 232.145 191.025 228.21Z" fill="#FFEDD7"/>
<path d="M167.526 228.21C167.526 228.21 177.267 232.145 191.025 228.21" stroke="#DA4B00" stroke-width="6" stroke-miterlimit="10" stroke-linecap="round"/>
</svg>