<svg xmlns="http://www.w3.org/2000/svg" width="285" height="285" viewBox="0 0 285 285" fill="none">
<path d="M133.563 95.5446C133.563 95.5446 127.242 93.7425 126.294 93.4421C120.29 91.9403 113.97 91.0392 107.965 91.0392C79.5233 90.1382 53.9256 106.357 43.8129 131.587C33.7003 156.817 40.3367 186.853 56.1378 209.079C62.4582 218.09 70.3587 226.199 79.5233 232.507C96.9044 244.521 117.446 250.528 137.671 257.436C140.199 258.337 145.572 256.235 148.1 255.634C157.896 253.231 167.061 249.327 175.91 244.521C201.507 230.104 225.525 207.878 233.425 179.945C240.694 154.414 239.114 122.577 217.624 103.654C200.559 88.6364 176.858 82.6293 154.104 88.0357C147.152 89.8378 140.199 92.2407 133.879 95.5446H133.563Z" fill="#FFC846"/>
<path d="M140.352 46.7624C140.352 46.7624 112.988 21.2932 69.3158 50.2962C66.2944 52.3027 66.4763 56.6214 69.729 58.226C82.7835 64.6657 112.915 75.8896 137.011 57.3893" fill="#FFF5DD"/>
<path d="M142.472 82.7926C142.472 82.7926 136.151 80.9905 135.203 80.6901C129.199 79.1883 122.879 78.2873 116.874 78.2873C88.4323 77.3862 62.8346 93.6054 52.7219 118.835C42.6093 144.065 49.2457 174.101 65.0467 196.327C71.3672 205.338 79.2677 213.447 88.4323 219.755C105.813 231.769 126.355 237.776 146.58 244.684C149.108 245.586 154.481 243.483 157.009 242.882C166.805 240.479 175.97 236.575 184.819 231.769C210.416 217.352 234.434 195.126 242.334 167.193C249.603 141.662 248.023 109.825 226.533 90.9022C209.468 75.8844 185.767 69.8773 163.013 75.2837C156.061 77.0858 149.108 79.4887 142.788 82.7926H142.472Z" fill="#FFF5DD" stroke="#E81B3C" stroke-width="6" stroke-miterlimit="10"/>
<path d="M142.58 82.8938C142.58 82.8938 170.083 90.3985 173.876 124.02" stroke="#E81B3C" stroke-width="6" stroke-miterlimit="10" stroke-linecap="round"/>
<path d="M140.352 46.7624C140.352 46.7624 112.988 21.2932 69.3158 50.2962C66.2944 52.3027 66.4763 56.6214 69.729 58.226C82.7835 64.6657 112.915 75.8896 137.011 57.3893" fill="#FFC846"/>
<path d="M140.352 46.7624C140.352 46.7624 112.988 21.2932 69.3158 50.2962C66.2944 52.3027 66.4763 56.6214 69.729 58.226C82.7835 64.6657 112.915 75.8896 137.011 57.3893" stroke="#E81B3C" stroke-width="6" stroke-miterlimit="10" stroke-linecap="round"/>
<path d="M152.071 30C152.071 30 127.833 54.7025 140.207 81.6506" stroke="#E81B3C" stroke-width="6" stroke-miterlimit="10" stroke-linecap="round"/>
</svg>