<svg xmlns="http://www.w3.org/2000/svg" width="285" height="285" viewBox="0 0 285 285" fill="none">
<path d="M69.2921 153.68C90.9895 153.68 108.584 137.481 108.584 117.475C108.584 97.4695 90.9895 81.2705 69.2921 81.2705C47.5948 81.2705 30 97.5118 30 117.475C30 137.438 47.5948 153.68 69.2921 153.68Z" fill="#5BCBF5"/>
<path d="M85.3644 206.337C107.062 206.337 124.657 190.138 124.657 170.132C124.657 150.127 107.062 133.928 85.3644 133.928C63.667 133.928 46.0723 150.127 46.0723 170.132C46.0723 190.138 63.667 206.337 85.3644 206.337Z" fill="#5BCBF5"/>
<path d="M123.472 264.451C145.17 264.451 162.764 248.252 162.764 228.246C162.764 208.24 145.17 192.041 123.472 192.041C101.775 192.041 84.1802 208.24 84.1802 228.246C84.1802 248.252 101.775 264.451 123.472 264.451Z" fill="#5BCBF5"/>
<path d="M168.347 21C168.347 21 137.937 22.3957 150.245 93.1131" stroke="#0082CB" stroke-width="6" stroke-miterlimit="10" stroke-linecap="round"/>
<path d="M95.5572 81.2705C85.787 75.1377 73.9446 61.265 67.5158 49.7607C67.1774 49.1686 67.6004 48.4496 68.1079 48.7879C73.9023 52.7637 80.6272 54.9207 87.0138 56.9932C94.4577 59.4463 117.381 66.6787 125.164 66.4672" fill="#EDF8FF"/>
<path d="M95.5572 81.2705C85.787 75.1377 73.9446 61.265 67.5158 49.7607C67.1774 49.1686 67.6004 48.4496 68.1079 48.7879C73.9023 52.7637 80.6272 54.9207 87.0138 56.9932C94.4577 59.4463 117.381 66.6787 125.164 66.4672" stroke="#0082CB" stroke-width="6" stroke-miterlimit="10"/>
<path d="M107.273 80.9321C107.273 80.9321 97.7564 64.0987 105.792 38.3833C106.215 37.0721 107.865 36.6915 108.838 37.622C114.421 42.9512 133.242 58.1774 152.528 80.9321" fill="#EDF8FF"/>
<path d="M107.273 80.9321C107.273 80.9321 97.7564 64.0987 105.792 38.3833C106.215 37.0721 107.865 36.6915 108.838 37.622C114.421 42.9512 133.242 58.1774 152.528 80.9321" stroke="#0082CB" stroke-width="6" stroke-miterlimit="10"/>
<path d="M197.065 83.3853C206.836 77.2525 222.358 61.265 228.787 49.7607C229.125 49.1686 228.702 48.4496 228.194 48.7879C222.4 52.7637 215.675 54.9207 209.289 56.9932C201.845 59.4463 183.7 62.4492 175.918 62.2377" fill="#EDF8FF"/>
<path d="M197.065 83.3853C206.836 77.2525 222.358 61.265 228.787 49.7607C229.125 49.1686 228.702 48.4496 228.194 48.7879C222.4 52.7637 215.675 54.9207 209.289 56.9932C201.845 59.4463 183.7 62.4492 175.918 62.2377" stroke="#0082CB" stroke-width="6" stroke-miterlimit="10"/>
<path d="M189.072 80.9321C189.072 80.9321 198.588 64.0987 190.552 38.3833C190.129 37.0721 188.48 36.6915 187.507 37.622C181.924 42.9512 163.103 58.1774 143.816 80.9321" fill="#EDF8FF"/>
<path d="M189.072 80.9321C189.072 80.9321 198.588 64.0987 190.552 38.3833C190.129 37.0721 188.48 36.6915 187.507 37.622C181.924 42.9512 163.103 58.1774 143.816 80.9321" stroke="#0082CB" stroke-width="6" stroke-miterlimit="10"/>
<path d="M80.923 144.84C102.62 144.84 120.215 128.641 120.215 108.635C120.215 88.6299 102.62 72.4308 80.923 72.4308C59.2256 72.4308 41.6309 88.6722 41.6309 108.635C41.6309 128.599 59.2256 144.84 80.923 144.84Z" fill="#EDF8FF" stroke="#0082CB" stroke-width="6" stroke-miterlimit="10"/>
<path d="M84.7716 84.1889C84.7716 84.1889 104.016 84.8233 109.176 102.037" stroke="#0082CB" stroke-width="6" stroke-miterlimit="10" stroke-linecap="round"/>
<path d="M96.9953 197.497C118.693 197.497 136.287 181.298 136.287 161.293C136.287 141.287 118.693 125.088 96.9953 125.088C75.2979 125.088 57.7031 141.287 57.7031 161.293C57.7031 181.298 75.2979 197.497 96.9953 197.497Z" fill="#EDF8FF" stroke="#0082CB" stroke-width="6" stroke-miterlimit="10"/>
<path d="M100.802 136.846C100.802 136.846 120.046 137.481 125.206 154.695" stroke="#0082CB" stroke-width="6" stroke-miterlimit="10" stroke-linecap="round"/>
<path d="M135.103 255.611C156.801 255.611 174.395 239.412 174.395 219.406C174.395 199.401 156.801 183.202 135.103 183.202C113.406 183.202 95.811 199.401 95.811 219.406C95.811 239.412 113.406 255.611 135.103 255.611Z" fill="#EDF8FF" stroke="#0082CB" stroke-width="6" stroke-miterlimit="10"/>
<path d="M138.952 194.96C138.952 194.96 158.196 195.594 163.356 212.808" stroke="#0082CB" stroke-width="6" stroke-miterlimit="10" stroke-linecap="round"/>
<path d="M213.899 144.84C235.596 144.84 253.191 128.641 253.191 108.635C253.191 88.6299 235.596 72.4308 213.899 72.4308C192.201 72.4308 174.606 88.6299 174.606 108.635C174.606 128.641 192.201 144.84 213.899 144.84Z" fill="#EDF8FF" stroke="#0082CB" stroke-width="6" stroke-miterlimit="10"/>
<path d="M217.748 84.1889C217.748 84.1889 236.992 84.8233 242.152 102.037" stroke="#0082CB" stroke-width="6" stroke-miterlimit="10" stroke-linecap="round"/>
<path d="M168.601 144.84C190.298 144.84 207.893 128.641 207.893 108.635C207.893 88.6299 190.298 72.4308 168.601 72.4308C146.903 72.4308 129.309 88.6299 129.309 108.635C129.309 128.641 146.903 144.84 168.601 144.84Z" fill="#EDF8FF" stroke="#0082CB" stroke-width="6" stroke-miterlimit="10"/>
<path d="M172.45 84.1889C172.45 84.1889 191.694 84.8233 196.854 102.037" stroke="#0082CB" stroke-width="6" stroke-miterlimit="10" stroke-linecap="round"/>
<path d="M112.306 144.84C134.004 144.84 151.598 128.641 151.598 108.635C151.598 88.6299 134.004 72.4308 112.306 72.4308C90.6088 72.4308 73.014 88.6299 73.014 108.635C73.014 128.641 90.6088 144.84 112.306 144.84Z" fill="#EDF8FF" stroke="#0082CB" stroke-width="6" stroke-miterlimit="10"/>
<path d="M116.155 84.1889C116.155 84.1889 135.399 84.8233 140.559 102.037" stroke="#0082CB" stroke-width="6" stroke-miterlimit="10" stroke-linecap="round"/>
<path d="M199.899 197.497C221.596 197.497 239.191 181.298 239.191 161.293C239.191 141.287 221.596 125.088 199.899 125.088C178.202 125.088 160.607 141.287 160.607 161.293C160.607 181.298 178.202 197.497 199.899 197.497Z" fill="#EDF8FF" stroke="#0082CB" stroke-width="6" stroke-miterlimit="10"/>
<path d="M203.706 136.846C203.706 136.846 222.95 137.481 228.11 154.695" stroke="#0082CB" stroke-width="6" stroke-miterlimit="10" stroke-linecap="round"/>
<path d="M143.985 197.497C165.683 197.497 183.277 181.298 183.277 161.293C183.277 141.287 165.683 125.088 143.985 125.088C122.288 125.088 104.693 141.287 104.693 161.293C104.693 181.298 122.288 197.497 143.985 197.497Z" fill="#EDF8FF" stroke="#0082CB" stroke-width="6" stroke-miterlimit="10"/>
<path d="M147.834 136.846C147.834 136.846 167.078 137.481 172.238 154.695" stroke="#0082CB" stroke-width="6" stroke-miterlimit="10" stroke-linecap="round"/>
<path d="M179.851 246.433C201.549 246.433 219.143 230.234 219.143 210.228C219.143 190.223 201.549 174.024 179.851 174.024C158.154 174.024 140.559 190.223 140.559 210.228C140.559 230.234 158.154 246.433 179.851 246.433Z" fill="#EDF8FF" stroke="#0082CB" stroke-width="6" stroke-miterlimit="10"/>
<path d="M183.7 185.782C183.7 185.782 202.944 186.416 208.104 203.63" stroke="#0082CB" stroke-width="6" stroke-miterlimit="10" stroke-linecap="round"/>
</svg>