<svg xmlns="http://www.w3.org/2000/svg" width="285" height="285" viewBox="0 0 285 285" fill="none">
<path d="M89.1289 243.761C93.4601 246.449 98.3913 247.779 102.54 246.397C111.515 243.396 143.712 196.275 155.166 181.82C168.29 165.226 183.945 149.858 205.444 145.397C216.69 143.075 227.544 139.787 237.276 133.551C247.008 127.315 255.775 118.418 262.454 108.53C272.838 93.1358 274.586 72.054 266.576 55.225C260.497 42.4402 247.895 35.6826 234.223 33.9344C222.221 32.4211 209.958 34.9781 199.339 40.666C196.156 42.388 193.129 44.371 190.285 46.5888C180.37 54.3379 172.413 65.3485 168.708 77.4027C164.376 91.4138 166.986 106.495 163.489 120.688C157.28 145.971 137.267 164.731 118.482 181.377C109.219 189.57 100.687 198.962 92.4686 208.251C88.294 213 78.1705 222.132 78.588 229.255C78.9011 234.368 83.4671 240.213 89.1289 243.709" fill="#FFEDD7"/>
<path d="M89.1289 243.761C93.4601 246.449 98.3913 247.779 102.54 246.397C111.515 243.396 143.712 196.275 155.166 181.82C168.29 165.226 183.945 149.858 205.444 145.397C216.69 143.075 227.544 139.787 237.276 133.551C247.008 127.315 255.775 118.418 262.454 108.53C272.838 93.1358 274.586 72.054 266.576 55.225C260.497 42.4402 247.895 35.6826 234.223 33.9344C222.221 32.4211 209.958 34.9781 199.339 40.666C196.156 42.388 193.129 44.371 190.285 46.5888C180.37 54.3379 172.413 65.3485 168.708 77.4027C164.376 91.4138 166.986 106.495 163.489 120.688C157.28 145.971 137.267 164.731 118.482 181.377C109.219 189.57 100.687 198.962 92.4686 208.251C88.294 213 78.1705 222.132 78.588 229.255C78.9011 234.368 83.4671 240.213 89.1289 243.709" stroke="#DA4B00" stroke-width="6" stroke-miterlimit="10"/>
<path d="M214.733 105.529C221.477 105.529 226.944 100.062 226.944 93.3183C226.944 86.5745 221.477 81.1075 214.733 81.1075C207.989 81.1075 202.522 86.5745 202.522 93.3183C202.522 100.062 207.989 105.529 214.733 105.529Z" fill="#FF8B3B" stroke="#DA4B00" stroke-width="6" stroke-miterlimit="10"/>
<path d="M184.597 51.7026C190.207 55.4337 191.746 63.0263 188.015 68.6359C184.284 74.2456 176.692 75.785 171.082 72.0539" fill="#FF8B3B"/>
<path d="M184.597 51.7026C190.207 55.4337 191.746 63.0263 188.015 68.6359C184.284 74.2456 176.692 75.785 171.082 72.0539" stroke="#DA4B00" stroke-width="6" stroke-miterlimit="10"/>
<path d="M241.79 129.298C237.093 124.445 237.197 116.722 242.05 112.026C246.903 107.329 254.627 107.434 259.323 112.287" fill="#FF8B3B"/>
<path d="M241.79 129.298C237.093 124.445 237.197 116.722 242.05 112.026C246.903 107.329 254.627 107.434 259.323 112.287" stroke="#DA4B00" stroke-width="6" stroke-miterlimit="10"/>
<path d="M158.532 134.282C158.532 134.282 169.569 151.111 183.006 154.216" stroke="#DA4B00" stroke-width="6" stroke-miterlimit="10"/>
<path d="M145.878 153.798C145.878 153.798 151.513 166.948 164.95 170.027" stroke="#DA4B00" stroke-width="6" stroke-miterlimit="10"/>
<path d="M198.739 41.0834C198.739 41.0834 233.284 80.2465 267.698 98.4583" stroke="#DA4B00" stroke-width="6" stroke-miterlimit="10"/>
<path d="M166.125 89.4569C166.125 89.4569 196.495 127.446 226.683 139.631" stroke="#DA4B00" stroke-width="6" stroke-miterlimit="10"/>
<path d="M202.392 243.187C198.061 245.875 193.129 247.205 188.981 245.823C180.005 242.822 147.809 195.701 136.354 181.246C123.231 164.652 107.576 149.284 86.0764 144.823C74.831 142.501 63.977 139.213 54.2449 132.977C44.5128 126.742 35.7461 117.844 29.0667 107.956C18.6823 92.5357 16.9342 71.4539 24.9443 54.6249C31.0497 41.8402 43.6257 35.0825 57.2976 33.3605C69.2996 31.8472 81.5626 34.4041 92.1818 40.092C95.3649 41.8141 98.3915 43.797 101.235 46.0148C111.15 53.7639 119.108 64.7745 122.813 76.8287C127.144 90.8398 124.535 105.921 128.031 120.114C134.241 145.397 154.253 164.157 173.039 180.803C182.301 188.996 190.833 198.388 199.052 207.677C203.227 212.426 213.35 221.558 212.933 228.681C212.62 233.794 208.054 239.639 202.392 243.135" fill="#FFEDD7"/>
<path d="M202.392 243.187C198.061 245.875 193.129 247.205 188.981 245.823C180.005 242.822 147.809 195.701 136.354 181.246C123.231 164.652 107.576 149.284 86.0764 144.823C74.831 142.501 63.977 139.213 54.2449 132.977C44.5128 126.742 35.7461 117.844 29.0667 107.956C18.6823 92.5357 16.9342 71.4539 24.9443 54.6249C31.0497 41.8402 43.6257 35.0825 57.2976 33.3605C69.2996 31.8472 81.5626 34.4041 92.1818 40.092C95.3649 41.8141 98.3915 43.797 101.235 46.0148C111.15 53.7639 119.108 64.7745 122.813 76.8287C127.144 90.8398 124.535 105.921 128.031 120.114C134.241 145.397 154.253 164.157 173.039 180.803C182.301 188.996 190.833 198.388 199.052 207.677C203.227 212.426 213.35 221.558 212.933 228.681C212.62 233.794 208.054 239.639 202.392 243.135" stroke="#DA4B00" stroke-width="6" stroke-miterlimit="10"/>
<path d="M76.7877 104.955C83.5315 104.955 88.9984 99.4882 88.9984 92.7443C88.9984 86.0005 83.5315 80.5336 76.7877 80.5336C70.0439 80.5336 64.5769 86.0005 64.5769 92.7443C64.5769 99.4882 70.0439 104.955 76.7877 104.955Z" fill="#FF8B3B" stroke="#DA4B00" stroke-width="6" stroke-miterlimit="10"/>
<path d="M106.923 51.1287C101.314 54.8597 99.7743 62.4523 103.505 68.062C107.236 73.6716 114.829 75.211 120.439 71.4799" fill="#FF8B3B"/>
<path d="M106.923 51.1287C101.314 54.8597 99.7743 62.4523 103.505 68.062C107.236 73.6716 114.829 75.211 120.439 71.4799" stroke="#DA4B00" stroke-width="6" stroke-miterlimit="10"/>
<path d="M49.731 128.724C54.4275 123.871 54.3231 116.148 49.4701 111.452C44.6171 106.755 36.8941 106.86 32.1976 111.713" fill="#FF8B3B"/>
<path d="M49.731 128.724C54.4275 123.871 54.3231 116.148 49.4701 111.452C44.6171 106.755 36.8941 106.86 32.1976 111.713" stroke="#DA4B00" stroke-width="6" stroke-miterlimit="10"/>
<path d="M132.989 133.708C132.989 133.708 121.952 150.537 108.515 153.642" stroke="#DA4B00" stroke-width="6" stroke-miterlimit="10"/>
<path d="M145.643 153.224C145.643 153.224 140.007 166.374 126.57 169.453" stroke="#DA4B00" stroke-width="6" stroke-miterlimit="10"/>
<path d="M92.7818 40.5094C92.7818 40.5094 58.2368 79.6726 23.8223 97.8844" stroke="#DA4B00" stroke-width="6" stroke-miterlimit="10"/>
<path d="M125.396 88.8829C125.396 88.8829 95.0256 126.872 64.8379 139.057" stroke="#DA4B00" stroke-width="6" stroke-miterlimit="10"/>
</svg>