<svg xmlns="http://www.w3.org/2000/svg" width="285" height="285" viewBox="0 0 285 285" fill="none">
<path d="M237.942 134.42C234.869 143.059 232.242 149.962 230.015 155.884C219.989 182.214 217.303 189.341 217.069 235.205C217.06 236.858 215.719 238.223 214.065 238.223H137.006C135.349 238.223 134.006 236.88 134.006 235.223V194.716C134.006 192.89 132.536 191.376 130.666 191.376H111.206C105.283 191.376 100.519 186.611 100.519 180.688V151.342C100.519 149.516 99.0044 148.002 97.1787 148.002H74.3099C72.033 148.002 70.586 145.566 71.6759 143.566L99.0935 93.2735C99.3162 92.9173 99.4052 92.561 99.4943 92.1602C104.036 59.2071 122.561 35.0712 150.304 25.9868C176.89 17.2141 207.438 24.2946 226.23 43.6212C247.071 64.9962 251.257 97.2813 237.942 134.42Z" fill="#5BCBF5"/>
<path d="M217.725 146.686C214.652 155.325 212.025 162.227 209.798 168.15C199.772 194.48 197.085 201.607 196.851 247.47C196.843 249.124 195.501 250.488 193.848 250.488H116.789C115.132 250.488 113.789 249.145 113.789 247.488V206.981C113.789 205.155 112.319 203.641 110.449 203.641H90.9887C85.0661 203.641 80.3012 198.877 80.3012 192.954V163.608C80.3012 161.782 78.7872 160.268 76.9614 160.268H54.0926C51.8157 160.268 50.3688 157.831 51.4586 155.832L78.8762 105.539C79.0989 105.183 79.1879 104.827 79.277 104.426C83.8192 71.4727 102.344 47.3367 130.087 38.2523C156.672 29.4797 187.221 36.5602 206.013 55.8867C226.854 77.2617 231.04 109.547 217.725 146.686Z" fill="#EDF8FF"/>
<path d="M210.778 51.2109C190.249 30.1477 156.984 22.3992 127.994 31.8844C98.0888 41.72 78.0128 67.3802 72.8098 102.33C72.7573 102.683 72.6437 103.028 72.4728 103.341L40.4906 162.005C39.9117 163.029 39.9562 164.32 40.5351 165.3C41.1585 166.324 42.2273 166.948 43.4296 166.948H70.6218C72.2787 166.948 73.6218 168.291 73.6218 169.948V192.954C73.6218 202.528 81.4148 210.321 90.989 210.321H104.109C105.766 210.321 107.109 211.664 107.109 213.321V253.828C107.109 255.654 108.623 257.168 110.449 257.168H200.18C201.07 257.168 201.916 256.812 202.54 256.188C203.163 255.565 203.519 254.719 203.519 253.828C203.519 203.419 205.657 197.763 216.033 170.555C218.304 164.587 220.931 157.596 224.048 148.957C243.152 95.3859 223.959 64.7039 210.778 51.2109ZM217.725 146.686C214.652 155.325 212.025 162.227 209.798 168.15C199.772 194.48 197.086 201.607 196.852 247.47C196.843 249.124 195.502 250.488 193.848 250.488H116.789C115.132 250.488 113.789 249.145 113.789 247.488V206.981C113.789 205.155 112.319 203.641 110.449 203.641H90.989C85.0663 203.641 80.3015 198.877 80.3015 192.954V163.608C80.3015 161.782 78.7874 160.268 76.9616 160.268H54.0929C51.816 160.268 50.369 157.831 51.4589 155.832L78.8765 105.539C79.0992 105.183 79.1882 104.827 79.2773 104.426C83.8195 71.4727 102.344 47.3367 130.087 38.2523C156.673 29.4797 187.221 36.5602 206.013 55.8867C226.854 77.2617 231.04 109.547 217.725 146.686Z" fill="#0082CB"/>
<path d="M153.511 210.321H110.449C108.623 210.321 107.109 208.807 107.109 206.981C107.109 205.155 108.623 203.641 110.449 203.641H153.511C155.336 203.641 156.851 205.155 156.851 206.981C156.851 208.807 155.336 210.321 153.511 210.321Z" fill="#0082CB"/>
<path d="M109.336 239.016H198.398C204.12 239.016 208.758 243.654 208.758 249.375C208.758 255.096 204.12 259.734 198.398 259.734H109.336C103.614 259.734 98.9763 255.096 98.9763 249.375C98.9763 243.654 103.614 239.016 109.336 239.016Z" fill="#EDF8FF" stroke="#0082CB" stroke-width="6"/>
<path d="M139.251 122.123C137.299 116.388 136.981 110.562 138.456 104.669C140.475 96.6008 144.918 90.1744 151.931 85.5224C157.945 81.5335 164.479 79.8145 171.538 81.4538C181.657 83.8045 188.041 90.146 190.233 100.247C192.811 112.131 185.736 124.281 174.233 128.022C166.587 130.508 157.99 126.98 154.225 119.881C149.624 111.204 153.247 100.584 162.238 96.3881C166.551 94.3759 172.131 95.9283 174.468 99.7931C177.184 104.279 176.299 109.793 172.309 112.799C171.5 113.41 170.524 113.931 169.548 114.163C168.363 114.447 167.345 113.613 166.993 112.431C166.677 111.372 167.165 110.247 168.228 109.648C170.004 108.649 171.155 107.237 171.118 105.135C171.084 103.292 170.273 101.825 168.606 100.955C166.523 99.8683 164.6 100.387 162.746 101.664C158.958 104.273 157.008 107.833 157.198 112.391C157.391 116.984 159.594 120.464 163.705 122.543C168.846 125.144 173.638 123.939 178.039 120.601C186.262 114.363 188.219 103.06 182.643 94.4465C178.02 87.3056 168.421 83.9247 160.402 86.7449C153.551 89.1553 148.428 93.627 145.322 100.13C140.768 109.66 141.398 119.024 147.558 127.478C153.962 136.268 163.02 139.742 173.884 138.011C181.12 136.86 186.972 132.983 191.786 127.609C202.182 116.009 203.388 98.9208 194.771 86.1522C189.823 78.8224 182.957 74.1134 174.3 72.1375C170.367 71.2397 166.287 70.9595 162.265 71.4483C157.752 71.9972 153.533 73.543 149.529 75.6636C145.466 77.8142 141.613 80.4045 138.145 83.419C137.643 83.8559 137.149 84.3016 136.662 84.7571C135.952 85.4202 135.198 86.1356 134.24 86.3016C133.416 86.4453 132.53 86.1184 132.004 85.4771C131.478 84.8357 131.334 83.9082 131.639 83.1329C131.895 82.481 132.423 81.976 132.942 81.5012C136.227 78.4889 139.759 75.7273 143.56 73.3865C147.361 71.0458 151.424 69.1337 155.707 67.8818C159.388 66.8043 163.229 66.2316 167.061 66.2628C170.707 66.2919 174.333 66.8724 177.805 67.9433C179.87 68.5797 181.878 69.3864 183.817 70.3309C193.694 75.147 200.271 82.8993 203.628 93.2797C206.087 100.883 206.172 108.63 203.667 116.263C199.495 128.977 191.176 137.861 178.211 141.976C169.627 144.7 161.316 143.587 153.527 139.277C146.558 135.422 141.815 129.658 139.252 122.125L139.251 122.123Z" fill="#0082CB"/>
</svg>